<svg viewBox="0 0 2361 224.5">
<g>
	<path fill="default" d="M118.8,112.3v46.6c0,31-25.1,56.1-56.1,56.1h0c-31,0-56.1-25.1-56.1-56.1v-46.6c0,0,0-41.2,0-41.2
		c0-7.7,6.3-14,14-14h0c7.7,0,14,6.3,14,14v41.2c0,0,0,44.1,0,44.1c0,15.5,12.6,28,28,28h0c15.5,0,28-12.6,28-28v-44.1l0-46.6
		c0-31,25.1-56.1,56.1-56.1h0c31,0,56.1,25.1,56.1,56.1v46.6l0,41.2c0,7.7-6.3,14-14,14h0c-7.7,0-14-6.3-14-14v-41.2V68.1
		c0-15.5-12.6-28-28-28h0c-15.5,0-28,12.6-28,28V112.3z"/>
	<path fill="default" d="M188.9,218.1c-32.6,0-59.2-26.6-59.2-59.2V71.1c0-9.5,7.7-17.1,17.1-17.1c9.5,0,17.1,7.7,17.1,17.1v85.3
		c0,13.7,11.2,24.9,24.9,24.9s24.9-11.2,24.9-24.9V65.7c0-32.6,26.6-59.2,59.2-59.2s59.2,26.6,59.2,59.2v87.8
		c0,9.5-7.7,17.1-17.1,17.1c-9.5,0-17.1-7.7-17.1-17.1V68.1c0-13.7-11.2-24.9-24.9-24.9s-24.9,11.2-24.9,24.9v90.7
		C248.1,191.5,221.6,218.1,188.9,218.1z M146.9,60.2c-6,0-10.9,4.9-10.9,10.9v87.8c0,29.2,23.8,52.9,52.9,52.9s52.9-23.8,52.9-52.9
		V68.1c0-17.2,14-31.2,31.2-31.2s31.2,14,31.2,31.2v85.3c0,6,4.9,10.9,10.9,10.9c6,0,10.9-4.9,10.9-10.9V65.7
		c0-29.2-23.8-52.9-52.9-52.9c-29.2,0-52.9,23.8-52.9,52.9v90.7c0,17.2-14,31.2-31.2,31.2s-31.2-14-31.2-31.2V71.1
		C157.8,65.1,152.9,60.2,146.9,60.2z"/>
	<path fill="default" d="M371.2,112.3v46.6c0,31-25.1,56.1-56.1,56.1h0c-31,0-56.1-25.1-56.1-56.1v-46.6c0,0,0-41.2,0-41.2
		c0-7.7,6.3-14,14-14h0c7.7,0,14,6.3,14,14v41.2v44.1c0,15.5,12.6,28,28,28h0c15.5,0,28-12.6,28-28v-44.1V65.7
		c0-31,25.1-56.1,56.1-56.1h0c31,0,56.1,25.1,56.1,56.1v46.6l0,41.2c0,7.7-6.3,14-14,14h0c-7.7,0-14-6.3-14-14v-41.2V68.1
		c0-15.5-12.6-28-28-28h0c-15.5,0-28,12.6-28,28V112.3z"/>
	<path fill="default" d="M441.3,218.1c-32.6,0-59.2-26.6-59.2-59.2V71.1c0-9.5,7.7-17.1,17.1-17.1s17.1,7.7,17.1,17.1v85.3
		c0,13.7,11.2,24.9,24.9,24.9s24.9-11.2,24.9-24.9V65.7c0-32.6,26.6-59.2,59.2-59.2c32.6,0,59.2,26.6,59.2,59.2v87.8
		c0,9.5-7.7,17.1-17.1,17.1c-9.5,0-17.1-7.7-17.1-17.1V68.1c0-13.7-11.2-24.9-24.9-24.9c-13.7,0-24.9,11.2-24.9,24.9v90.7
		C500.5,191.5,473.9,218.1,441.3,218.1z M399.2,60.2c-6,0-10.9,4.9-10.9,10.9v87.8c0,29.2,23.8,52.9,52.9,52.9
		c29.2,0,52.9-23.8,52.9-52.9V68.1c0-17.2,14-31.2,31.2-31.2c17.2,0,31.2,14,31.2,31.2v85.3c0,6,4.9,10.9,10.9,10.9
		s10.9-4.9,10.9-10.9V65.7c0-29.2-23.8-52.9-52.9-52.9c-29.2,0-52.9,23.8-52.9,52.9v90.7c0,17.2-14,31.2-31.2,31.2
		s-31.2-14-31.2-31.2V71.1C410.1,65.1,405.2,60.2,399.2,60.2z"/>
	<path fill="default" d="M623.5,112.3v46.6c0,31-25.1,56.1-56.1,56.1h0c-31,0-56.1-25.1-56.1-56.1v-46.6c0,0,0-41.2,0-41.2
		c0-7.7,6.3-14,14-14h0c7.7,0,14,6.3,14,14v41.2v44.1c0,15.5,12.6,28,28,28h0c15.5,0,28-12.6,28-28v-44.1V65.7
		c0-31,25.1-56.1,56.1-56.1h0c31,0,56.1,25.1,56.1,56.1v46.6c0,0,0,41.2,0,41.2c0,7.7-6.3,14-14,14l0,0c-7.7,0-14-6.3-14-14v-41.2
		V68.1c0-15.5-12.6-28-28-28h0c-15.5,0-28,12.6-28,28V112.3z"/>
	<path fill="default" d="M693.6,218.1c-32.6,0-59.2-26.6-59.2-59.2V71.1c0-9.5,7.7-17.1,17.1-17.1c9.5,0,17.1,7.7,17.1,17.1v85.3
		c0,13.7,11.2,24.9,24.9,24.9c13.7,0,24.9-11.2,24.9-24.9V65.7c0-32.6,26.6-59.2,59.2-59.2c32.6,0,59.2,26.6,59.2,59.2v87.8
		c0,9.5-7.7,17.1-17.1,17.1s-17.1-7.7-17.1-17.1V68.1c0-13.7-11.2-24.9-24.9-24.9c-13.7,0-24.9,11.2-24.9,24.9v90.7
		C752.8,191.5,726.2,218.1,693.6,218.1z M651.5,60.2c-6,0-10.9,4.9-10.9,10.9v87.8c0,29.2,23.8,52.9,52.9,52.9s52.9-23.8,52.9-52.9
		V68.1c0-17.2,14-31.2,31.2-31.2s31.2,14,31.2,31.2v85.3c0,6,4.9,10.9,10.9,10.9s10.9-4.9,10.9-10.9V65.7
		c0-29.2-23.8-52.9-52.9-52.9c-29.2,0-52.9,23.8-52.9,52.9v90.7c0,17.2-14,31.2-31.2,31.2s-31.2-14-31.2-31.2V71.1
		C662.4,65.1,657.5,60.2,651.5,60.2z"/>
</g>
<g>
	<path fill="default" d="M875.8,112.3v46.6c0,31-25.1,56.1-56.1,56.1h0c-31,0-56.1-25.1-56.1-56.1v-46.6c0,0,0-41.2,0-41.2
		c0-7.7,6.3-14,14-14h0c7.7,0,14,6.3,14,14v41.2c0,0,0,44.1,0,44.1c0,15.5,12.6,28,28,28h0c15.5,0,28-12.6,28-28v-44.1V65.7
		c0-31,25.1-56.1,56.1-56.1h0c31,0,56.1,25.1,56.1,56.1v46.6l0,41.2c0,7.7-6.3,14-14,14h0c-7.7,0-14-6.3-14-14v-41.2V68.1
		c0-15.5-12.6-28-28-28h0c-15.5,0-28,12.6-28,28V112.3z"/>
	<path fill="default" d="M945.9,218.1c-32.6,0-59.2-26.6-59.2-59.2V71.1c0-9.5,7.7-17.1,17.1-17.1c9.5,0,17.1,7.7,17.1,17.1v85.3
		c0,13.7,11.2,24.9,24.9,24.9c13.7,0,24.9-11.2,24.9-24.9V65.7c0-32.6,26.6-59.2,59.2-59.2c32.6,0,59.2,26.6,59.2,59.2v87.8
		c0,9.5-7.7,17.1-17.1,17.1s-17.1-7.7-17.1-17.1V68.1c0-13.7-11.2-24.9-24.9-24.9c-13.7,0-24.9,11.2-24.9,24.9v90.7
		C1005.1,191.5,978.6,218.1,945.9,218.1z M903.9,60.2c-6,0-10.9,4.9-10.9,10.9v87.8c0,29.2,23.8,52.9,52.9,52.9
		c29.2,0,52.9-23.8,52.9-52.9V68.1c0-17.2,14-31.2,31.2-31.2c17.2,0,31.2,14,31.2,31.2v85.3c0,6,4.9,10.9,10.9,10.9
		c6,0,10.9-4.9,10.9-10.9V65.7c0-29.2-23.8-52.9-52.9-52.9c-29.2,0-52.9,23.8-52.9,52.9v90.7c0,17.2-14,31.2-31.2,31.2
		s-31.2-14-31.2-31.2V71.1C914.8,65.1,909.9,60.2,903.9,60.2z"/>
	<path fill="default" d="M1128.2,112.3v46.6c0,31-25.1,56.1-56.1,56.1l0,0c-31,0-56.1-25.1-56.1-56.1v-46.6c0,0,0-41.2,0-41.2
		c0-7.7,6.3-14,14-14l0,0c7.7,0,14,6.3,14,14v41.2v44.1c0,15.5,12.6,28,28,28h0c15.5,0,28-12.6,28-28v-44.1V65.7
		c0-31,25.1-56.1,56.1-56.1h0c31,0,56.1,25.1,56.1,56.1v46.6v41.2c0,7.7-6.3,14-14,14h0c-7.7,0-14-6.3-14-14v-41.2V68.1
		c0-15.5-12.6-28-28-28l0,0c-15.5,0-28,12.6-28,28V112.3z"/>
	<path fill="default" d="M1198.3,218.1c-32.6,0-59.2-26.6-59.2-59.2V71.1c0-9.5,7.7-17.1,17.1-17.1s17.1,7.7,17.1,17.1v85.3
		c0,13.7,11.2,24.9,24.9,24.9c13.7,0,24.9-11.2,24.9-24.9V65.7c0-32.6,26.6-59.2,59.2-59.2s59.2,26.6,59.2,59.2v87.8
		c0,9.5-7.7,17.1-17.1,17.1s-17.1-7.7-17.1-17.1V68.1c0-13.7-11.2-24.9-24.9-24.9s-24.9,11.2-24.9,24.9v90.7
		C1257.5,191.5,1230.9,218.1,1198.3,218.1z M1156.2,60.2c-6,0-10.9,4.9-10.9,10.9v87.8c0,29.2,23.8,52.9,52.9,52.9
		c29.2,0,52.9-23.8,52.9-52.9V68.1c0-17.2,14-31.2,31.2-31.2c17.2,0,31.2,14,31.2,31.2v85.3c0,6,4.9,10.9,10.9,10.9
		c6,0,10.9-4.9,10.9-10.9V65.7c0-29.2-23.8-52.9-52.9-52.9c-29.2,0-52.9,23.8-52.9,52.9v90.7c0,17.2-14,31.2-31.2,31.2
		c-17.2,0-31.2-14-31.2-31.2V71.1C1167.1,65.1,1162.2,60.2,1156.2,60.2z"/>
	<path fill="default" d="M1380.5,112.3v46.6c0,31-25.1,56.1-56.1,56.1h0c-31,0-56.1-25.1-56.1-56.1v-46.6c0,0,0-41.2,0-41.2
		c0-7.7,6.3-14,14-14l0,0c7.7,0,14,6.3,14,14v41.2v44.1c0,15.5,12.6,28,28,28h0c15.5,0,28-12.6,28-28v-44.1V65.7
		c0-31,25.1-56.1,56.1-56.1h0c31,0,56.1,25.1,56.1,56.1v46.6c0,0,0,41.2,0,41.2c0,7.7-6.3,14-14,14l0,0c-7.7,0-14-6.3-14-14v-41.2
		V68.1c0-15.5-12.6-28-28-28h0c-15.5,0-28,12.6-28,28V112.3z"/>
	<path fill="default" d="M1450.6,218.1c-32.6,0-59.2-26.6-59.2-59.2V71.1c0-9.5,7.7-17.1,17.1-17.1c9.5,0,17.1,7.7,17.1,17.1v85.3
		c0,13.7,11.2,24.9,24.9,24.9c13.7,0,24.9-11.2,24.9-24.9V65.7c0-32.6,26.6-59.2,59.2-59.2c32.6,0,59.2,26.6,59.2,59.2v87.8
		c0,9.5-7.7,17.1-17.1,17.1s-17.1-7.7-17.1-17.1V68.1c0-13.7-11.2-24.9-24.9-24.9s-24.9,11.2-24.9,24.9v90.7
		C1509.8,191.5,1483.2,218.1,1450.6,218.1z M1408.5,60.2c-6,0-10.9,4.9-10.9,10.9v87.8c0,29.2,23.8,52.9,52.9,52.9
		c29.2,0,52.9-23.8,52.9-52.9V68.1c0-17.2,14-31.2,31.2-31.2c17.2,0,31.2,14,31.2,31.2v85.3c0,6,4.9,10.9,10.9,10.9
		s10.9-4.9,10.9-10.9V65.7c0-29.2-23.8-52.9-52.9-52.9c-29.2,0-52.9,23.8-52.9,52.9v90.7c0,17.2-14,31.2-31.2,31.2
		c-17.2,0-31.2-14-31.2-31.2V71.1C1419.4,65.1,1414.5,60.2,1408.5,60.2z"/>
</g>
<g>
	<path fill="default" d="M1632.8,112.3v46.6c0,31-25.1,56.1-56.1,56.1h0c-31,0-56.1-25.1-56.1-56.1v-46.6c0,0,0-41.2,0-41.2
		c0-7.7,6.3-14,14-14l0,0c7.7,0,14,6.3,14,14v41.2c0,0,0,44.1,0,44.1c0,15.5,12.6,28,28,28l0,0c15.5,0,28-12.6,28-28v-44.1V65.7
		c0-31,25.1-56.1,56.1-56.1h0c31,0,56.1,25.1,56.1,56.1v46.6l0,41.2c0,7.7-6.3,14-14,14l0,0c-7.7,0-14-6.3-14-14v-41.2V68.1
		c0-15.5-12.6-28-28-28h0c-15.5,0-28,12.6-28,28V112.3z"/>
	<path fill="default" d="M1702.9,218.1c-32.6,0-59.2-26.6-59.2-59.2V71.1c0-9.5,7.7-17.1,17.1-17.1s17.1,7.7,17.1,17.1v85.3
		c0,13.7,11.2,24.9,24.9,24.9c13.7,0,24.9-11.2,24.9-24.9V65.7c0-32.6,26.6-59.2,59.2-59.2s59.2,26.6,59.2,59.2v87.8
		c0,9.5-7.7,17.1-17.1,17.1s-17.1-7.7-17.1-17.1V68.1c0-13.7-11.2-24.9-24.9-24.9c-13.7,0-24.9,11.2-24.9,24.9v90.7
		C1762.1,191.5,1735.6,218.1,1702.9,218.1z M1660.9,60.2c-6,0-10.9,4.9-10.9,10.9v87.8c0,29.2,23.8,52.9,52.9,52.9
		c29.2,0,52.9-23.8,52.9-52.9V68.1c0-17.2,14-31.2,31.2-31.2c17.2,0,31.2,14,31.2,31.2v85.3c0,6,4.9,10.9,10.9,10.9
		c6,0,10.9-4.9,10.9-10.9V65.7c0-29.2-23.8-52.9-52.9-52.9c-29.2,0-52.9,23.8-52.9,52.9v90.7c0,17.2-14,31.2-31.2,31.2
		c-17.2,0-31.2-14-31.2-31.2V71.1C1671.8,65.1,1666.9,60.2,1660.9,60.2z"/>
	<path fill="default" d="M1885.2,112.3v46.6c0,31-25.1,56.1-56.1,56.1l0,0c-31,0-56.1-25.1-56.1-56.1v-46.6c0,0,0-41.2,0-41.2
		c0-7.7,6.3-14,14-14l0,0c7.7,0,14,6.3,14,14v41.2v44.1c0,15.5,12.6,28,28,28h0c15.5,0,28-12.6,28-28v-44.1V65.7
		c0-31,25.1-56.1,56.1-56.1h0c31,0,56.1,25.1,56.1,56.1v46.6v41.2c0,7.7-6.3,14-14,14h0c-7.7,0-14-6.3-14-14v-41.2V68.1
		c0-15.5-12.6-28-28-28l0,0c-15.5,0-28,12.6-28,28V112.3z"/>
	<path fill="default" d="M1955.3,218.1c-32.6,0-59.2-26.6-59.2-59.2V71.1c0-9.5,7.7-17.1,17.1-17.1s17.1,7.7,17.1,17.1v85.3
		c0,13.7,11.2,24.9,24.9,24.9c13.7,0,24.9-11.2,24.9-24.9V65.7c0-32.6,26.6-59.2,59.2-59.2c32.6,0,59.2,26.6,59.2,59.2v87.8
		c0,9.5-7.7,17.1-17.1,17.1s-17.1-7.7-17.1-17.1V68.1c0-13.7-11.2-24.9-24.9-24.9s-24.9,11.2-24.9,24.9v90.7
		C2014.5,191.5,1987.9,218.1,1955.3,218.1z M1913.2,60.2c-6,0-10.9,4.9-10.9,10.9v87.8c0,29.2,23.8,52.9,52.9,52.9
		c29.2,0,52.9-23.8,52.9-52.9V68.1c0-17.2,14-31.2,31.2-31.2s31.2,14,31.2,31.2v85.3c0,6,4.9,10.9,10.9,10.9s10.9-4.9,10.9-10.9
		V65.7c0-29.2-23.8-52.9-52.9-52.9s-52.9,23.8-52.9,52.9v90.7c0,17.2-14,31.2-31.2,31.2c-17.2,0-31.2-14-31.2-31.2V71.1
		C1924.1,65.1,1919.2,60.2,1913.2,60.2z"/>
	<path fill="default" d="M2137.5,112.3v46.6c0,31-25.1,56.1-56.1,56.1h0c-31,0-56.1-25.1-56.1-56.1v-46.6c0,0,0-41.2,0-41.2
		c0-7.7,6.3-14,14-14l0,0c7.7,0,14,6.3,14,14v41.2v44.1c0,15.5,12.6,28,28,28l0,0c15.5,0,28-12.6,28-28v-44.1V65.7
		c0-31,25.1-56.1,56.1-56.1h0c31,0,56.1,25.1,56.1,56.1v46.6c0,0,0,41.2,0,41.2c0,7.7-6.3,14-14,14l0,0c-7.7,0-14-6.3-14-14v-41.2
		V68.1c0-15.5-12.6-28-28-28l0,0c-15.5,0-28,12.6-28,28V112.3z"/>
	<path fill="default" d="M2207.6,218.1c-32.6,0-59.2-26.6-59.2-59.2V71.1c0-9.5,7.7-17.1,17.1-17.1c9.5,0,17.1,7.7,17.1,17.1v85.3
		c0,13.7,11.2,24.9,24.9,24.9c13.7,0,24.9-11.2,24.9-24.9V65.7c0-32.6,26.6-59.2,59.2-59.2c32.6,0,59.2,26.6,59.2,59.2v87.8
		c0,9.5-7.7,17.1-17.1,17.1s-17.1-7.7-17.1-17.1V68.1c0-13.7-11.2-24.9-24.9-24.9c-13.7,0-24.9,11.2-24.9,24.9v90.7
		C2266.8,191.5,2240.2,218.1,2207.6,218.1z M2165.5,60.2c-6,0-10.9,4.9-10.9,10.9v87.8c0,29.2,23.8,52.9,52.9,52.9
		s52.9-23.8,52.9-52.9V68.1c0-17.2,14-31.2,31.2-31.2c17.2,0,31.2,14,31.2,31.2v85.3c0,6,4.9,10.9,10.9,10.9s10.9-4.9,10.9-10.9
		V65.7c0-29.2-23.8-52.9-52.9-52.9c-29.2,0-52.9,23.8-52.9,52.9v90.7c0,17.2-14,31.2-31.2,31.2c-17.2,0-31.2-14-31.2-31.2V71.1
		C2176.4,65.1,2171.5,60.2,2165.5,60.2z"/>
</g>
</svg>
