<?xml version="1.0" encoding="utf-8"?>
<!-- Generator: Adobe Illustrator 23.0.1, SVG Export Plug-In . SVG Version: 6.00 Build 0)  -->
<svg version="1.1" id="Layer_1" xmlns="http://www.w3.org/2000/svg" xmlns:xlink="http://www.w3.org/1999/xlink" x="0px" y="0px"
	 viewBox="0 0 356.9 298.5" style="enable-background:new 0 0 356.9 298.5;" xml:space="preserve">
<style type="text/css">
	.st0{fill-rule:evenodd;clip-rule:evenodd;fill:#003460;}
</style>
<g>
	<g>
		<polygon class="st0" points="194.2,117.5 213.2,79.5 251.2,3.5 203.7,3.5 125.7,51.2 158.8,117.5 		"/>
		<polygon class="st0" points="99.2,3.5 118.2,41.5 156.2,117.5 80.2,117.5 4.2,117.5 42.2,41.5 61.2,3.5 		"/>
		<polygon class="st0" points="295.7,3.5 314.7,41.5 352.7,117.5 276.7,117.5 200.7,117.5 238.7,41.5 257.7,3.5 		"/>
		<g>
			<polygon class="st0" points="197.4,124 178.4,162 140.4,238 216.4,238 292.4,238 254.4,162 235.4,124 			"/>
			<polygon class="st0" points="96,238 77,200 39,124 115,124 191,124 105.5,295 67.5,295 			"/>
		</g>
	</g>
</g>
</svg>
